<?xml version="1.0" standalone="no"?>
<!DOCTYPE svg PUBLIC "-//W3C//DTD SVG 20010904//EN"
 "http://www.w3.org/TR/2001/REC-SVG-20010904/DTD/svg10.dtd">
<svg version="1.0" xmlns="http://www.w3.org/2000/svg"
 width="485.000000pt" height="485.000000pt" viewBox="0 0 485.000000 485.000000"
 preserveAspectRatio="xMidYMid meet">
<metadata>
Created by potrace 1.14, written by Peter Selinger 2001-2017
</metadata>
<g transform="translate(0.000000,485.000000) scale(0.100000,-0.100000)"
fill="#000000" stroke="none">
<path d="M4710 3686 c-117 -58 -293 -133 -425 -181 -71 -26 -139 -51 -150 -56
-11 -4 -60 -21 -110 -38 -49 -16 -142 -48 -205 -71 -63 -23 -146 -53 -185 -67
-38 -13 -113 -41 -165 -60 -52 -19 -138 -51 -190 -70 -336 -124 -401 -157
-501 -256 -72 -72 -100 -113 -159 -227 -117 -231 -264 -411 -375 -463 -34 -16
-85 -53 -117 -85 -32 -31 -60 -54 -62 -51 -3 3 14 24 39 47 40 39 43 46 34 74
-4 17 -15 38 -24 48 -8 9 -15 23 -15 32 0 8 -13 33 -30 56 -22 31 -38 43 -67
48 -46 8 -70 28 -89 74 -26 61 -64 108 -102 123 -21 8 -47 29 -59 46 -13 16
-44 42 -70 58 -27 15 -68 43 -93 63 -90 73 -174 120 -214 120 -38 0 -38 0
-124 93 -27 29 -78 37 -100 15 -8 -8 -16 -5 -31 13 -11 13 -20 29 -21 34 0 14
-68 79 -98 94 -36 19 -60 5 -67 -39 -4 -22 -4 -54 0 -72 6 -30 -2 -24 -97 72
-57 58 -125 120 -153 138 -46 30 -51 32 -62 15 -7 -9 -13 -24 -13 -34 0 -21
37 -106 50 -114 13 -8 13 -28 1 -23 -5 1 -36 28 -68 58 -100 94 -183 160 -203
160 -27 0 -49 -26 -43 -50 3 -12 31 -46 62 -77 59 -59 55 -61 -19 -8 -58 42
-201 118 -265 141 -27 9 -56 22 -63 27 -21 17 -45 -14 -34 -44 26 -67 631
-595 782 -682 25 -15 98 -44 161 -65 173 -59 243 -100 363 -212 57 -54 114
-104 127 -111 l24 -13 -25 -7 c-14 -4 -48 -7 -76 -8 -92 -2 -265 -71 -309
-123 -32 -38 -34 -99 -5 -128 25 -25 38 -25 70 0 17 13 41 20 75 20 52 0 52 0
299 -128 55 -29 107 -52 116 -52 36 0 236 -72 268 -96 24 -19 42 -25 63 -22
26 4 35 -2 74 -50 41 -49 45 -58 39 -91 -4 -20 -10 -40 -15 -45 -5 -6 -9 -18
-9 -28 0 -11 -22 -41 -48 -67 -38 -38 -62 -52 -118 -69 -76 -23 -164 -88 -150
-110 8 -13 383 -17 401 -4 6 4 15 18 21 32 22 50 92 126 140 151 32 17 50 34
52 48 5 30 16 26 37 -12 17 -33 17 -35 0 -65 -20 -33 -36 -42 -102 -62 -45
-14 -103 -60 -103 -83 0 -22 32 -27 186 -27 155 0 160 2 166 60 3 35 4 35 50
35 26 1 53 6 59 12 17 17 14 71 -6 93 -30 33 -6 22 33 -15 55 -52 125 -83 225
-97 79 -11 94 -10 138 5 43 16 58 17 104 7 30 -6 60 -8 67 -4 6 4 48 10 92 14
82 6 136 25 144 47 9 30 -183 201 -343 305 -38 25 -137 90 -220 144 -82 54
-161 101 -175 105 -23 4 -21 6 12 12 27 6 47 19 70 47 17 22 39 40 49 40 10 0
30 16 45 35 23 30 32 35 69 35 35 0 50 6 81 35 21 20 48 35 62 35 15 0 37 13
56 35 25 27 40 35 67 35 20 0 58 7 87 15 53 16 69 37 57 75 -5 16 -2 20 18 20
58 0 179 46 205 78 17 22 16 26 -14 61 l-26 31 38 0 c89 0 218 32 252 63 31
29 28 54 -10 77 l-33 20 55 0 c149 0 308 39 330 81 16 28 -30 75 -81 83 -52 8
-44 18 24 28 137 20 181 32 265 76 62 33 58 40 -39 71 -19 6 -75 11 -124 11
-49 0 -86 2 -84 4 2 2 54 16 115 29 193 44 328 115 348 184 10 33 -18 43 -94
33 -36 -5 -83 -14 -105 -19 -22 -5 -41 -8 -43 -6 -5 4 65 35 79 35 15 0 168
79 229 117 59 38 140 114 140 133 0 16 -65 1 -250 -60 -14 -4 -45 -13 -70 -20
-25 -7 -77 -23 -117 -36 -39 -13 -75 -24 -80 -24 -9 1 148 79 159 80 3 0 51
25 105 56 170 96 273 185 273 236 0 38 -25 36 -110 -6z m-3137 -1533 c-7 -2
-19 -2 -25 0 -7 3 -2 5 12 5 14 0 19 -2 13 -5z m350 0 c-13 -2 -33 -2 -45 0
-13 2 -3 4 22 4 25 0 35 -2 23 -4z m127 -113 c0 -5 -5 -10 -11 -10 -5 0 -7 5
-4 10 3 6 8 10 11 10 2 0 4 -4 4 -10z m-34 -57 c-10 -10 -19 5 -10 18 6 11 8
11 12 0 2 -7 1 -15 -2 -18z m1 -45 c-3 -8 -6 -5 -6 6 -1 11 2 17 5 13 3 -3 4
-12 1 -19z m33 -23 c11 -13 10 -14 -4 -9 -9 3 -16 10 -16 15 0 13 6 11 20 -6z
m215 -25 c3 -5 -1 -10 -9 -10 -9 0 -16 5 -16 10 0 6 4 10 9 10 6 0 13 -4 16
-10z m-138 -16 c-3 -3 -12 -4 -19 -1 -8 3 -5 6 6 6 11 1 17 -2 13 -5z m413 0
c-38 -8 -90 -9 -90 -2 0 4 24 7 53 7 28 -1 45 -3 37 -5z m-173 -30 c-3 -3 -12
-4 -19 -1 -8 3 -5 6 6 6 11 1 17 -2 13 -5z"/>
</g>
</svg>
